<mxfile host="app.diagrams.net" agent="Mozilla/5.0 (Windows NT 10.0; Win64; x64) AppleWebKit/537.36 (KHTML, like Gecko) Chrome/133.0.0.0 Safari/537.36" version="26.0.15" pages="2">
  <diagram name="Stage Machine" id="Eu6HeKPC29wQd00Vjeen">
    <mxGraphModel dx="926" dy="484" grid="1" gridSize="10" guides="1" tooltips="1" connect="1" arrows="1" fold="1" page="0" pageScale="1" pageWidth="827" pageHeight="1169" math="0" shadow="0">
      <root>
        <mxCell id="0" />
        <mxCell id="1" parent="0" />
        <mxCell id="Ly1mtInb4D5jYQDWLuMp-1" value="Idle" style="ellipse;whiteSpace=wrap;html=1;" vertex="1" parent="1">
          <mxGeometry x="80" y="180" width="120" height="80" as="geometry" />
        </mxCell>
        <mxCell id="Ly1mtInb4D5jYQDWLuMp-2" value="Walk" style="ellipse;whiteSpace=wrap;html=1;" vertex="1" parent="1">
          <mxGeometry x="240" y="40" width="120" height="80" as="geometry" />
        </mxCell>
        <mxCell id="Ly1mtInb4D5jYQDWLuMp-3" value="Jump" style="ellipse;whiteSpace=wrap;html=1;" vertex="1" parent="1">
          <mxGeometry x="440" y="40" width="120" height="80" as="geometry" />
        </mxCell>
        <mxCell id="Ly1mtInb4D5jYQDWLuMp-4" value="Fall" style="ellipse;whiteSpace=wrap;html=1;" vertex="1" parent="1">
          <mxGeometry x="440" y="320" width="120" height="80" as="geometry" />
        </mxCell>
        <mxCell id="Ly1mtInb4D5jYQDWLuMp-5" value="Air Jump" style="ellipse;whiteSpace=wrap;html=1;" vertex="1" parent="1">
          <mxGeometry x="600" y="180" width="120" height="80" as="geometry" />
        </mxCell>
        <mxCell id="Ly1mtInb4D5jYQDWLuMp-6" value="Wall Slide" style="ellipse;whiteSpace=wrap;html=1;" vertex="1" parent="1">
          <mxGeometry x="240" y="320" width="120" height="80" as="geometry" />
        </mxCell>
      </root>
    </mxGraphModel>
  </diagram>
  <diagram id="xfEoW8o654_zCLfdEFpt" name="PlayerController">
    <mxGraphModel dx="1657" dy="1057" grid="1" gridSize="10" guides="1" tooltips="1" connect="1" arrows="1" fold="1" page="0" pageScale="1" pageWidth="827" pageHeight="1169" math="0" shadow="0">
      <root>
        <mxCell id="0" />
        <mxCell id="1" parent="0" />
        <mxCell id="EKBZo-qQUB64bJ8KaJRt-1" value="PlayerController" style="swimlane;whiteSpace=wrap;html=1;" vertex="1" parent="1">
          <mxGeometry x="120" y="80" width="200" height="200" as="geometry" />
        </mxCell>
        <mxCell id="EKBZo-qQUB64bJ8KaJRt-5" style="edgeStyle=orthogonalEdgeStyle;rounded=0;orthogonalLoop=1;jettySize=auto;html=1;entryX=0;entryY=0;entryDx=0;entryDy=0;" edge="1" parent="1" source="EKBZo-qQUB64bJ8KaJRt-2" target="EKBZo-qQUB64bJ8KaJRt-1">
          <mxGeometry relative="1" as="geometry" />
        </mxCell>
        <mxCell id="EKBZo-qQUB64bJ8KaJRt-2" value="PlayerInput" style="swimlane;whiteSpace=wrap;html=1;" vertex="1" parent="1">
          <mxGeometry x="-160" y="-40" width="200" height="200" as="geometry" />
        </mxCell>
        <mxCell id="EKBZo-qQUB64bJ8KaJRt-4" style="edgeStyle=orthogonalEdgeStyle;rounded=0;orthogonalLoop=1;jettySize=auto;html=1;entryX=0.5;entryY=0;entryDx=0;entryDy=0;" edge="1" parent="1" source="EKBZo-qQUB64bJ8KaJRt-3" target="EKBZo-qQUB64bJ8KaJRt-1">
          <mxGeometry relative="1" as="geometry" />
        </mxCell>
        <mxCell id="EKBZo-qQUB64bJ8KaJRt-3" value="PlayerMovement" style="swimlane;whiteSpace=wrap;html=1;" vertex="1" parent="1">
          <mxGeometry x="120" y="-200" width="200" height="200" as="geometry" />
        </mxCell>
      </root>
    </mxGraphModel>
  </diagram>
</mxfile>
